<svg width="18" height="18" viewBox="0 0 18 18" fill="none" xmlns="http://www.w3.org/2000/svg">
<path d="M14.5451 13.6625L16.9864 16.1025C17.1002 16.2204 17.1632 16.3782 17.1618 16.5421C17.1603 16.706 17.0946 16.8627 16.9787 16.9786C16.8629 17.0945 16.7061 17.1602 16.5422 17.1616C16.3784 17.1631 16.2205 17.1001 16.1026 16.9862L13.6614 14.545C12.0661 15.9118 10.0034 16.6076 7.90612 16.4863C5.80887 16.3651 3.8401 15.4363 2.41291 13.8948C0.985729 12.3532 0.211076 10.3189 0.251507 8.21851C0.291937 6.11815 1.14431 4.11509 2.62976 2.62964C4.11521 1.14419 6.11827 0.291815 8.21863 0.251385C10.319 0.210954 12.3534 0.985607 13.8949 2.41279C15.4364 3.83998 16.3652 5.80875 16.4865 7.906C16.6077 10.0032 15.9119 12.0659 14.5451 13.6612V13.6625ZM8.3751 15.25C10.1985 15.25 11.9471 14.5257 13.2365 13.2363C14.5258 11.947 15.2501 10.1983 15.2501 8.37498C15.2501 6.55162 14.5258 4.80293 13.2365 3.51362C11.9471 2.22431 10.1985 1.49998 8.3751 1.49998C6.55174 1.49998 4.80305 2.22431 3.51374 3.51362C2.22443 4.80293 1.5001 6.55162 1.5001 8.37498C1.5001 10.1983 2.22443 11.947 3.51374 13.2363C4.80305 14.5257 6.55174 15.25 8.3751 15.25Z" fill="black"/>
</svg>
