<svg width="16" height="16" viewBox="0 0 16 16" fill="none" xmlns="http://www.w3.org/2000/svg">
<path d="M1.33301 13C1.33301 12.1159 1.6842 11.2681 2.30932 10.6429C2.93444 10.0178 3.78229 9.66663 4.66634 9.66663H11.333C12.2171 9.66663 13.0649 10.0178 13.69 10.6429C14.3152 11.2681 14.6663 12.1159 14.6663 13C14.6663 13.442 14.4907 13.8659 14.1782 14.1785C13.8656 14.491 13.4417 14.6666 12.9997 14.6666H2.99967C2.55765 14.6666 2.13372 14.491 1.82116 14.1785C1.5086 13.8659 1.33301 13.442 1.33301 13Z" stroke="black" stroke-width="1.5" stroke-linejoin="round"/>
<path d="M8 6.33331C9.38071 6.33331 10.5 5.21402 10.5 3.83331C10.5 2.4526 9.38071 1.33331 8 1.33331C6.61929 1.33331 5.5 2.4526 5.5 3.83331C5.5 5.21402 6.61929 6.33331 8 6.33331Z" stroke="black" stroke-width="1.5"/>
</svg>
