<svg width="18" height="15" viewBox="0 0 18 15" fill="none" xmlns="http://www.w3.org/2000/svg">
<path d="M12.9062 0.28125C11.2656 0.28125 9.83906 1.02109 9 2.26094C8.16094 1.02109 6.73438 0.28125 5.09375 0.28125C3.85099 0.282697 2.65955 0.777022 1.78079 1.65579C0.902022 2.53455 0.407697 3.72599 0.40625 4.96875C0.40625 7.25 1.82812 9.62422 4.63281 12.0242C5.91801 13.1193 7.30627 14.0874 8.77813 14.9148C8.84634 14.9515 8.92257 14.9707 9 14.9707C9.07743 14.9707 9.15366 14.9515 9.22187 14.9148C10.6937 14.0874 12.082 13.1193 13.3672 12.0242C16.1719 9.62422 17.5938 7.25 17.5938 4.96875C17.5923 3.72599 17.098 2.53455 16.2192 1.65579C15.3405 0.777022 14.149 0.282697 12.9062 0.28125ZM9 13.9617C7.71797 13.2219 1.34375 9.32187 1.34375 4.96875C1.34478 3.97451 1.7402 3.02128 2.44324 2.31824C3.14628 1.6152 4.09951 1.21978 5.09375 1.21875C6.67812 1.21875 8.00859 2.06484 8.56641 3.42734C8.60172 3.51332 8.6618 3.58685 8.739 3.6386C8.81621 3.69035 8.90706 3.71798 9 3.71798C9.09294 3.71798 9.18379 3.69035 9.261 3.6386C9.3382 3.58685 9.39828 3.51332 9.43359 3.42734C9.99141 2.06484 11.3219 1.21875 12.9062 1.21875C13.9005 1.21978 14.8537 1.6152 15.5568 2.31824C16.2598 3.02128 16.6552 3.97451 16.6562 4.96875C16.6562 9.32187 10.282 13.2219 9 13.9617Z" fill="black"/>
</svg>
